<svg xmlns="http://www.w3.org/2000/svg" width="1800" height="430" viewBox="0 0 1800 430">
  <defs><marker id="arrow" markerWidth="12" markerHeight="12" refX="10" refY="6" orient="auto"><path d="M0,0 L12,6 L0,12 Z" fill="#111"/></marker></defs>
  <rect width="1800" height="430" fill="#fff"/>
  <g fill="none" stroke="#111" stroke-width="2.4" marker-end="url(#arrow)">
    <path d="M245 230H285"/><path d="M465 230H505"/><path d="M705 230H745"/><path d="M945 230H985"/><path d="M1165 230H1205"/><path d="M1385 230H1425"/><path d="M1605 230H1615"/>
  </g>
  <g fill="#fff" stroke="#111" stroke-width="2.4">
    <ellipse cx="145" cy="230" rx="100" ry="58"/>
    <rect x="285" y="170" width="180" height="120" rx="10"/>
    <rect x="505" y="170" width="200" height="120" rx="10"/>
    <rect x="745" y="170" width="200" height="120" rx="10"/>
    <rect x="985" y="170" width="180" height="120" rx="10"/>
    <rect x="1205" y="170" width="180" height="120" rx="10"/>
    <rect x="1425" y="170" width="180" height="120" rx="10"/>
    <ellipse cx="1685" cy="230" rx="70" ry="58"/>
  </g>
  <g fill="#111" font-family="Microsoft YaHei, SimSun, sans-serif" font-size="25" text-anchor="middle">
    <text x="145" y="238">审计计划编制</text><text x="375" y="238">审计项目立项</text>
    <text x="605" y="220"><tspan x="605">审计准备与</tspan><tspan x="605" dy="34">资料收集</tspan></text>
    <text x="845" y="220"><tspan x="845">审计方案和</tspan><tspan x="845" dy="34">底稿编制</tspan></text>
    <text x="1075" y="238">审计问题确认</text><text x="1295" y="238">整改跟踪</text><text x="1515" y="238">审计报告</text><text x="1685" y="238">项目归档</text>
  </g>
</svg>
