<svg xmlns="http://www.w3.org/2000/svg" width="1800" height="500" viewBox="0 0 1800 500">
  <defs><marker id="arrow" markerWidth="12" markerHeight="12" refX="10" refY="6" orient="auto"><path d="M0,0 L12,6 L0,12 Z" fill="#111"/></marker></defs>
  <rect width="1800" height="500" fill="#fff"/>
  <g fill="none" stroke="#111" stroke-width="2.4" marker-end="url(#arrow)">
    <path d="M250 250H300"/><path d="M520 250H570"/><path d="M810 250H860"/><path d="M1130 250H1180"/><path d="M1400 250H1425"/>
  </g>
  <g fill="#fff" stroke="#111" stroke-width="2.4">
    <ellipse cx="145" cy="250" rx="105" ry="62"/>
    <rect x="300" y="180" width="220" height="140" rx="10"/>
    <rect x="570" y="180" width="240" height="140" rx="10"/>
    <rect x="860" y="180" width="270" height="140" rx="10"/>
    <rect x="1180" y="180" width="220" height="140" rx="10"/>
    <ellipse cx="1580" cy="250" rx="155" ry="72"/>
  </g>
  <g fill="#111" font-family="Microsoft YaHei, SimSun, sans-serif" font-size="25" text-anchor="middle">
    <text x="145" y="232"><tspan x="145">用户输入</tspan><tspan x="145" dy="34">自然语言指令</tspan></text>
    <text x="410" y="242"><tspan x="410">系统识别</tspan><tspan x="410" dy="34">任务类型</tspan></text>
    <text x="690" y="242"><tspan x="690">检索项目资料</tspan><tspan x="690" dy="34">或审计知识</tspan></text>
    <text x="995" y="225"><tspan x="995">调用对应业务</tspan><tspan x="995" dy="34">处理器与大模型</tspan></text>
    <text x="1290" y="242"><tspan x="1290">SSE流式</tspan><tspan x="1290" dy="34">返回结果</tspan></text>
    <text x="1580" y="225"><tspan x="1580">保存会话、分析结果</tspan><tspan x="1580" dy="34">或取证记录</tspan></text>
  </g>
</svg>
