<svg xmlns="http://www.w3.org/2000/svg" width="1800" height="430" viewBox="0 0 1800 430">
  <defs><marker id="arrow" markerWidth="12" markerHeight="12" refX="10" refY="6" orient="auto"><path d="M0,0 L12,6 L0,12 Z" fill="#111"/></marker></defs>
  <rect width="1800" height="430" fill="#fff"/>
  <g fill="none" stroke="#111" stroke-width="2.4" marker-end="url(#arrow)">
    <path d="M215 230H255"/><path d="M435 230H475"/><path d="M755 230H795"/><path d="M975 230H1015"/><path d="M1215 230H1255"/><path d="M1515 230H1530"/>
  </g>
  <g fill="#fff" stroke="#111" stroke-width="2.4">
    <ellipse cx="125" cy="230" rx="90" ry="58"/>
    <rect x="255" y="170" width="180" height="120" rx="10"/>
    <rect x="475" y="155" width="280" height="150" rx="10"/>
    <rect x="795" y="170" width="180" height="120" rx="10"/>
    <rect x="1015" y="170" width="200" height="120" rx="10"/>
    <rect x="1255" y="155" width="260" height="150" rx="10"/>
    <ellipse cx="1640" cy="230" rx="110" ry="62"/>
  </g>
  <g fill="#111" font-family="Microsoft YaHei, SimSun, sans-serif" font-size="24" text-anchor="middle">
    <text x="125" y="238">文件上传</text><text x="345" y="238">文件类型识别</text>
    <text x="615" y="195"><tspan x="615">Word、Excel、PDF</tspan><tspan x="615" dy="34">CSV或TXT</tspan><tspan x="615" dy="34">内容解析</tspan></text>
    <text x="885" y="238">文本切分</text><text x="1115" y="225"><tspan x="1115">Embedding</tspan><tspan x="1115" dy="34">向量化</tspan></text>
    <text x="1385" y="212"><tspan x="1385">PostgreSQL</tspan><tspan x="1385" dy="34">与pgvector入库</tspan></text>
    <text x="1640" y="225"><tspan x="1640">RAG</tspan><tspan x="1640" dy="34">语义检索</tspan></text>
  </g>
</svg>
